<svg width="68" height="120" viewBox="0 0 68 120" fill="none" xmlns="http://www.w3.org/2000/svg">
<g id="Tree">
<g id="Group">
<ellipse id="Oval" opacity="0.68" cx="33.99" cy="33.8716" rx="33.99" ry="33.8717" fill="#9155FD"/>
<path id="Path" opacity="0.68" d="M33.9904 66.6577C15.7971 66.6577 1.08984 51.8931 1.08984 33.8716C1.08984 15.7416 15.906 1.08557 33.9904 1.08557C52.1838 1.08557 66.8911 15.8502 66.8911 33.8716C66.8911 52.0017 52.0749 66.6577 33.9904 66.6577Z" fill="url(#paint0_linear_7708_93686)"/>
</g>
<path id="Path_2" d="M40.6664 31.165C40.2505 30.7268 39.6266 30.7268 39.2107 31.165L35.6756 34.8899V19.9902C35.6756 19.3329 35.2597 18.8947 34.6358 18.8947C34.012 18.8947 33.5961 19.3329 33.5961 19.9902V49.3514L27.8774 43.3258C27.4615 42.8876 26.8377 42.8876 26.4218 43.3258C26.0059 43.7641 26.0059 44.4214 26.4218 44.8596L33.5961 52.419V90.6544C33.5961 91.3117 34.012 91.7499 34.6358 91.7499C35.2597 91.7499 35.6756 91.3117 35.6756 90.6544V37.9575L40.6664 32.6988C41.0823 32.2606 41.0823 31.6032 40.6664 31.165Z" fill="#9155FD"/>
<rect id="Rectangle" x="23.1362" y="84.3157" width="23.7895" height="35.6842" fill="#C6C2D6"/>
</g>
<defs>
<linearGradient id="paint0_linear_7708_93686" x1="66.8911" y1="33.8716" x2="1.08984" y2="33.8716" gradientUnits="userSpaceOnUse">
<stop stop-color="#9155FD"/>
<stop offset="1" stop-color="#C6A7FE"/>
</linearGradient>
</defs>
</svg>
