<svg width="41" height="70" viewBox="0 0 41 70" fill="none" xmlns="http://www.w3.org/2000/svg">
<g id="Tree">
<g id="Group">
<ellipse id="Oval" opacity="0.68" cx="20.8075" cy="19.7584" rx="19.8275" ry="19.7585" fill="#9155FD"/>
<path id="Path" opacity="0.68" d="M20.8077 38.8837C10.1949 38.8837 1.61572 30.271 1.61572 19.7585C1.61572 9.18265 10.2585 0.633301 20.8077 0.633301C31.4205 0.633301 39.9998 9.24597 39.9998 19.7585C39.9998 30.3344 31.357 38.8837 20.8077 38.8837Z" fill="url(#paint0_linear_7708_93692)"/>
</g>
<path id="Path_2" d="M24.7022 18.1796C24.4596 17.9239 24.0957 17.9239 23.8531 18.1796L21.7909 20.3524V11.6609C21.7909 11.2775 21.5483 11.0219 21.1844 11.0219C20.8205 11.0219 20.5779 11.2775 20.5779 11.6609V28.7883L17.242 25.2734C16.9994 25.0177 16.6355 25.0177 16.3929 25.2734C16.1503 25.529 16.1503 25.9124 16.3929 26.1681L20.5779 30.5777V52.8817C20.5779 53.2651 20.8205 53.5208 21.1844 53.5208C21.5483 53.5208 21.7909 53.2651 21.7909 52.8817V22.1419L24.7022 19.0743C24.9448 18.8186 24.9448 18.4352 24.7022 18.1796Z" fill="#9155FD"/>
<rect id="Rectangle" x="14.4756" y="49.1842" width="13.8772" height="20.8158" fill="#C6C2D6"/>
</g>
<defs>
<linearGradient id="paint0_linear_7708_93692" x1="39.9998" y1="19.7585" x2="1.61572" y2="19.7585" gradientUnits="userSpaceOnUse">
<stop stop-color="#9155FD"/>
<stop offset="1" stop-color="#C6A7FE"/>
</linearGradient>
</defs>
</svg>
